{
  "nbformat": 4,
  "nbformat_minor": 0,
  "metadata": {
    "colab": {
      "provenance": []
    },
    "kernelspec": {
      "name": "python3",
      "display_name": "Python 3"
    },
    "accelerator": "GPU"
  },
  "cells": [
    {
      "cell_type": "markdown",
      "metadata": {
        "id": "vSQFs_G8caeE"
      },
      "source": [
        "# Collab preliminaries"
      ]
    },
    {
      "cell_type": "code",
      "metadata": {
        "id": "XIVB0Xn1g6ih",
        "colab": {
          "base_uri": "https://localhost:8080/"
        },
        "outputId": "87fb5c30-534e-4eaf-fe45-2350a4c6d999"
      },
      "source": [
        "!nvcc --version"
      ],
      "execution_count": 1,
      "outputs": [
        {
          "output_type": "stream",
          "name": "stdout",
          "text": [
            "nvcc: NVIDIA (R) Cuda compiler driver\n",
            "Copyright (c) 2005-2022 NVIDIA Corporation\n",
            "Built on Wed_Sep_21_10:33:58_PDT_2022\n",
            "Cuda compilation tools, release 11.8, V11.8.89\n",
            "Build cuda_11.8.r11.8/compiler.31833905_0\n"
          ]
        }
      ]
    },
    {
      "cell_type": "code",
      "metadata": {
        "id": "qciH4PsUazL_",
        "colab": {
          "base_uri": "https://localhost:8080/"
        },
        "outputId": "6c2a60aa-1f58-4455-96e7-93da059d6e4b"
      },
      "source": [
        "from google.colab import drive\n",
        "drive.mount('/content/gdrive')"
      ],
      "execution_count": 22,
      "outputs": [
        {
          "output_type": "stream",
          "name": "stdout",
          "text": [
            "Drive already mounted at /content/gdrive; to attempt to forcibly remount, call drive.mount(\"/content/gdrive\", force_remount=True).\n"
          ]
        }
      ]
    },
    {
      "cell_type": "markdown",
      "metadata": {
        "id": "yJ5taGmPcWV-"
      },
      "source": [
        "# Get the code and models"
      ]
    },
    {
      "cell_type": "code",
      "metadata": {
        "id": "P3LihClHbUd3",
        "colab": {
          "base_uri": "https://localhost:8080/"
        },
        "outputId": "d209eae2-d2d1-40f0-a727-e6580df7d494"
      },
      "source": [
        "!git clone https://github.com/Rudrabha/Wav2Lip.git"
      ],
      "execution_count": 3,
      "outputs": [
        {
          "output_type": "stream",
          "name": "stdout",
          "text": [
            "Cloning into 'Wav2Lip'...\n",
            "remote: Enumerating objects: 363, done.\u001b[K\n",
            "remote: Counting objects: 100% (3/3), done.\u001b[K\n",
            "remote: Compressing objects: 100% (3/3), done.\u001b[K\n",
            "remote: Total 363 (delta 0), reused 1 (delta 0), pack-reused 360\u001b[K\n",
            "Receiving objects: 100% (363/363), 528.20 KiB | 4.80 MiB/s, done.\n",
            "Resolving deltas: 100% (198/198), done.\n"
          ]
        }
      ]
    },
    {
      "cell_type": "code",
      "metadata": {
        "id": "y-19nzx8SamJ",
        "colab": {
          "base_uri": "https://localhost:8080/"
        },
        "outputId": "acf3782a-9b69-4aba-cabc-19edc15b65e8"
      },
      "source": [
        "!ls /content/gdrive/MyDrive/Wav2Lip"
      ],
      "execution_count": 28,
      "outputs": [
        {
          "output_type": "stream",
          "name": "stdout",
          "text": [
            "test.mp4  test.wav  wav2lip.pth\n"
          ]
        }
      ]
    },
    {
      "cell_type": "code",
      "metadata": {
        "id": "YjzMPy_Sb0AI"
      },
      "source": [
        "!cp -ri \"/content/gdrive/MyDrive/Wav2Lip/wav2lip.pth\" /content/Wav2Lip/checkpoints/"
      ],
      "execution_count": 27,
      "outputs": []
    },
    {
      "cell_type": "markdown",
      "metadata": {
        "id": "aWTaOS3ncFt6"
      },
      "source": [
        "# Get the pre-requisites"
      ]
    },
    {
      "cell_type": "code",
      "metadata": {
        "id": "Ooh28vw-Uvd3",
        "colab": {
          "base_uri": "https://localhost:8080/"
        },
        "outputId": "37083c6b-2358-4fb8-8abf-e0a937eeec1f"
      },
      "source": [
        "!pip uninstall tensorflow tensorflow-gpu"
      ],
      "execution_count": null,
      "outputs": [
        {
          "output_type": "stream",
          "name": "stdout",
          "text": [
            "Found existing installation: tensorflow 2.8.2+zzzcolab20220719082949\n",
            "Uninstalling tensorflow-2.8.2+zzzcolab20220719082949:\n",
            "  Would remove:\n",
            "    /usr/local/bin/estimator_ckpt_converter\n",
            "    /usr/local/bin/import_pb_to_tensorboard\n",
            "    /usr/local/bin/saved_model_cli\n",
            "    /usr/local/bin/tensorboard\n",
            "    /usr/local/bin/tf_upgrade_v2\n",
            "    /usr/local/bin/tflite_convert\n",
            "    /usr/local/bin/toco\n",
            "    /usr/local/bin/toco_from_protos\n",
            "    /usr/local/lib/python3.7/dist-packages/tensorflow-2.8.2+zzzcolab20220719082949.dist-info/*\n",
            "    /usr/local/lib/python3.7/dist-packages/tensorflow/*\n",
            "Proceed (y/n)? y\n",
            "  Successfully uninstalled tensorflow-2.8.2+zzzcolab20220719082949\n",
            "\u001b[33mWARNING: Skipping tensorflow-gpu as it is not installed.\u001b[0m\n"
          ]
        }
      ]
    },
    {
      "cell_type": "code",
      "metadata": {
        "id": "49dCYlLdcK2D",
        "colab": {
          "base_uri": "https://localhost:8080/"
        },
        "outputId": "c15ba01e-d9ec-4601-d8a4-4fb2aef02a08"
      },
      "source": [
        "!cd Wav2Lip && pip install -r requirements.txt"
      ],
      "execution_count": 30,
      "outputs": [
        {
          "output_type": "stream",
          "name": "stdout",
          "text": [
            "Collecting librosa==0.7.0 (from -r requirements.txt (line 1))\n",
            "  Using cached librosa-0.7.0.tar.gz (1.6 MB)\n",
            "  Preparing metadata (setup.py) ... \u001b[?25l\u001b[?25hdone\n",
            "Collecting numpy==1.17.1 (from -r requirements.txt (line 2))\n",
            "  Using cached numpy-1.17.1.zip (6.5 MB)\n",
            "  Preparing metadata (setup.py) ... \u001b[?25l\u001b[?25hdone\n",
            "Requirement already satisfied: opencv-contrib-python>=4.2.0.34 in /usr/local/lib/python3.10/dist-packages (from -r requirements.txt (line 3)) (4.7.0.72)\n",
            "\u001b[31mERROR: Could not find a version that satisfies the requirement opencv-python==4.1.0.25 (from versions: 3.4.0.14, 3.4.10.37, 3.4.11.39, 3.4.11.41, 3.4.11.43, 3.4.11.45, 3.4.13.47, 3.4.15.55, 3.4.16.57, 3.4.16.59, 3.4.17.61, 3.4.17.63, 3.4.18.65, 4.3.0.38, 4.4.0.40, 4.4.0.42, 4.4.0.44, 4.4.0.46, 4.5.1.48, 4.5.3.56, 4.5.4.58, 4.5.4.60, 4.5.5.62, 4.5.5.64, 4.6.0.66, 4.7.0.68, 4.7.0.72, 4.8.0.74)\u001b[0m\u001b[31m\n",
            "\u001b[0m\u001b[31mERROR: No matching distribution found for opencv-python==4.1.0.25\u001b[0m\u001b[31m\n",
            "\u001b[0m"
          ]
        }
      ]
    },
    {
      "cell_type": "code",
      "metadata": {
        "id": "ey_bN4M6X_95",
        "colab": {
          "base_uri": "https://localhost:8080/"
        },
        "outputId": "d45dd7c7-5639-4d85-e088-019b0d9d5376"
      },
      "source": [
        "!wget \"https://www.adrianbulat.com/downloads/python-fan/s3fd-619a316812.pth\" -O \"Wav2Lip/face_detection/detection/sfd/s3fd.pth\""
      ],
      "execution_count": 7,
      "outputs": [
        {
          "output_type": "stream",
          "name": "stdout",
          "text": [
            "--2023-07-18 06:36:14--  https://www.adrianbulat.com/downloads/python-fan/s3fd-619a316812.pth\n",
            "Resolving www.adrianbulat.com (www.adrianbulat.com)... 45.136.29.207\n",
            "Connecting to www.adrianbulat.com (www.adrianbulat.com)|45.136.29.207|:443... connected.\n",
            "HTTP request sent, awaiting response... 200 OK\n",
            "Length: 89843225 (86M) [application/octet-stream]\n",
            "Saving to: ‘Wav2Lip/face_detection/detection/sfd/s3fd.pth’\n",
            "\n",
            "Wav2Lip/face_detect 100%[===================>]  85.68M   584KB/s    in 63s     \n",
            "\n",
            "2023-07-18 06:37:17 (1.36 MB/s) - ‘Wav2Lip/face_detection/detection/sfd/s3fd.pth’ saved [89843225/89843225]\n",
            "\n"
          ]
        }
      ]
    },
    {
      "cell_type": "markdown",
      "metadata": {
        "id": "qdIQfY2Kswcb"
      },
      "source": [
        "# Now lets try!"
      ]
    },
    {
      "cell_type": "code",
      "metadata": {
        "id": "KoVGMtjRZfeR",
        "colab": {
          "base_uri": "https://localhost:8080/"
        },
        "outputId": "49de2e6f-671c-4d65-ebf6-879dfbd9d0a0"
      },
      "source": [
        "!cp \"/content/gdrive/My Drive/Wav2Lip/test.mp4\" \"/content/gdrive/My Drive/Wav2Lip/test.wav\" sample_data/\n",
        "!ls sample_data/"
      ],
      "execution_count": 29,
      "outputs": [
        {
          "output_type": "stream",
          "name": "stdout",
          "text": [
            "anscombe.json\t\t      mnist_test.csv\t     test.mp4\n",
            "california_housing_test.csv   mnist_train_small.csv  test.wav\n",
            "california_housing_train.csv  README.md\n"
          ]
        }
      ]
    },
    {
      "cell_type": "code",
      "metadata": {
        "id": "jR5utmDMcSZY",
        "colab": {
          "base_uri": "https://localhost:8080/"
        },
        "outputId": "114c3f4c-39fc-46cf-9a4d-349b212a74a0"
      },
      "source": [
        "!cd Wav2Lip && python inference.py --checkpoint_path checkpoints/wav2lip.pth --face \"../sample_data/test.mp4\" --audio \"../sample_data/test.wav\""
      ],
      "execution_count": 32,
      "outputs": [
        {
          "output_type": "stream",
          "name": "stdout",
          "text": [
            "Using cuda for inference.\n",
            "Reading video frames...\n",
            "Number of frames available for inference: 220\n",
            "(80, 5386)\n",
            "Length of mel chunks: 1680\n",
            "  0% 0/14 [00:00<?, ?it/s]\n",
            "  0% 0/14 [00:00<?, ?it/s]\u001b[A\n",
            "  7% 1/14 [00:10<02:20, 10.81s/it]\u001b[A\n",
            " 14% 2/14 [00:11<00:58,  4.85s/it]\u001b[A\n",
            " 21% 3/14 [00:12<00:32,  2.95s/it]\u001b[A\n",
            " 29% 4/14 [00:12<00:20,  2.09s/it]\u001b[A\n",
            " 36% 5/14 [00:13<00:14,  1.63s/it]\u001b[A\n",
            " 43% 6/14 [00:14<00:10,  1.35s/it]\u001b[A\n",
            " 50% 7/14 [00:15<00:08,  1.17s/it]\u001b[A\n",
            " 57% 8/14 [00:16<00:06,  1.07s/it]\u001b[A\n",
            " 64% 9/14 [00:16<00:04,  1.04it/s]\u001b[A\n",
            " 71% 10/14 [00:17<00:03,  1.14it/s]\u001b[A\n",
            " 79% 11/14 [00:18<00:02,  1.22it/s]\u001b[A\n",
            " 86% 12/14 [00:19<00:01,  1.29it/s]\u001b[A\n",
            " 93% 13/14 [00:19<00:00,  1.33it/s]\u001b[A\n",
            "100% 14/14 [00:26<00:00,  1.90s/it]\n",
            "Load checkpoint from: checkpoints/wav2lip.pth\n",
            "Model loaded\n",
            "100% 14/14 [00:47<00:00,  3.38s/it]\n",
            "ffmpeg version 4.2.7-0ubuntu0.1 Copyright (c) 2000-2022 the FFmpeg developers\n",
            "  built with gcc 9 (Ubuntu 9.4.0-1ubuntu1~20.04.1)\n",
            "  configuration: --prefix=/usr --extra-version=0ubuntu0.1 --toolchain=hardened --libdir=/usr/lib/x86_64-linux-gnu --incdir=/usr/include/x86_64-linux-gnu --arch=amd64 --enable-gpl --disable-stripping --enable-avresample --disable-filter=resample --enable-avisynth --enable-gnutls --enable-ladspa --enable-libaom --enable-libass --enable-libbluray --enable-libbs2b --enable-libcaca --enable-libcdio --enable-libcodec2 --enable-libflite --enable-libfontconfig --enable-libfreetype --enable-libfribidi --enable-libgme --enable-libgsm --enable-libjack --enable-libmp3lame --enable-libmysofa --enable-libopenjpeg --enable-libopenmpt --enable-libopus --enable-libpulse --enable-librsvg --enable-librubberband --enable-libshine --enable-libsnappy --enable-libsoxr --enable-libspeex --enable-libssh --enable-libtheora --enable-libtwolame --enable-libvidstab --enable-libvorbis --enable-libvpx --enable-libwavpack --enable-libwebp --enable-libx265 --enable-libxml2 --enable-libxvid --enable-libzmq --enable-libzvbi --enable-lv2 --enable-omx --enable-openal --enable-opencl --enable-opengl --enable-sdl2 --enable-libdc1394 --enable-libdrm --enable-libiec61883 --enable-nvenc --enable-chromaprint --enable-frei0r --enable-libx264 --enable-shared\n",
            "  libavutil      56. 31.100 / 56. 31.100\n",
            "  libavcodec     58. 54.100 / 58. 54.100\n",
            "  libavformat    58. 29.100 / 58. 29.100\n",
            "  libavdevice    58.  8.100 / 58.  8.100\n",
            "  libavfilter     7. 57.100 /  7. 57.100\n",
            "  libavresample   4.  0.  0 /  4.  0.  0\n",
            "  libswscale      5.  5.100 /  5.  5.100\n",
            "  libswresample   3.  5.100 /  3.  5.100\n",
            "  libpostproc    55.  5.100 / 55.  5.100\n",
            "\u001b[0;35m[mp3 @ 0x5842fa5690c0] \u001b[0m\u001b[0;33mEstimating duration from bitrate, this may be inaccurate\n",
            "\u001b[0mInput #0, mp3, from '../sample_data/test.wav':\n",
            "  Duration: 00:01:07.32, start: 0.000000, bitrate: 96 kb/s\n",
            "    Stream #0:0: Audio: mp3, 44100 Hz, mono, fltp, 96 kb/s\n",
            "Input #1, avi, from 'temp/result.avi':\n",
            "  Metadata:\n",
            "    encoder         : Lavf59.27.100\n",
            "  Duration: 00:01:07.20, start: 0.000000, bitrate: 888 kb/s\n",
            "    Stream #1:0: Video: mpeg4 (Simple Profile) (DIVX / 0x58564944), yuv420p, 640x320 [SAR 1:1 DAR 2:1], 883 kb/s, 25 fps, 25 tbr, 25 tbn, 25 tbc\n",
            "Stream mapping:\n",
            "  Stream #1:0 -> #0:0 (mpeg4 (native) -> h264 (libx264))\n",
            "  Stream #0:0 -> #0:1 (mp3 (mp3float) -> aac (native))\n",
            "Press [q] to stop, [?] for help\n",
            "\u001b[1;36m[libx264 @ 0x5842fa5a8e00] \u001b[0m\u001b[0;33m-qscale is ignored, -crf is recommended.\n",
            "\u001b[0m\u001b[1;36m[libx264 @ 0x5842fa5a8e00] \u001b[0musing SAR=1/1\n",
            "\u001b[1;36m[libx264 @ 0x5842fa5a8e00] \u001b[0musing cpu capabilities: MMX2 SSE2Fast SSSE3 SSE4.2 AVX FMA3 BMI2 AVX2\n",
            "\u001b[1;36m[libx264 @ 0x5842fa5a8e00] \u001b[0mprofile High, level 2.2\n",
            "\u001b[1;36m[libx264 @ 0x5842fa5a8e00] \u001b[0m264 - core 155 r2917 0a84d98 - H.264/MPEG-4 AVC codec - Copyleft 2003-2018 - http://www.videolan.org/x264.html - options: cabac=1 ref=3 deblock=1:0:0 analyse=0x3:0x113 me=hex subme=7 psy=1 psy_rd=1.00:0.00 mixed_ref=1 me_range=16 chroma_me=1 trellis=1 8x8dct=1 cqm=0 deadzone=21,11 fast_pskip=1 chroma_qp_offset=-2 threads=3 lookahead_threads=1 sliced_threads=0 nr=0 decimate=1 interlaced=0 bluray_compat=0 constrained_intra=0 bframes=3 b_pyramid=2 b_adapt=1 b_bias=0 direct=1 weightb=1 open_gop=0 weightp=2 keyint=250 keyint_min=25 scenecut=40 intra_refresh=0 rc_lookahead=40 rc=crf mbtree=1 crf=23.0 qcomp=0.60 qpmin=0 qpmax=69 qpstep=4 ip_ratio=1.40 aq=1:1.00\n",
            "Output #0, mp4, to 'results/result_voice.mp4':\n",
            "  Metadata:\n",
            "    encoder         : Lavf58.29.100\n",
            "    Stream #0:0: Video: h264 (libx264) (avc1 / 0x31637661), yuv420p(progressive), 640x320 [SAR 1:1 DAR 2:1], q=-1--1, 25 fps, 12800 tbn, 25 tbc\n",
            "    Metadata:\n",
            "      encoder         : Lavc58.54.100 libx264\n",
            "    Side data:\n",
            "      cpb: bitrate max/min/avg: 0/0/0 buffer size: 0 vbv_delay: -1\n",
            "    Stream #0:1: Audio: aac (LC) (mp4a / 0x6134706D), 44100 Hz, mono, fltp, 69 kb/s\n",
            "    Metadata:\n",
            "      encoder         : Lavc58.54.100 aac\n",
            "frame= 1680 fps= 98 q=-1.0 Lsize=    3548kB time=00:01:07.33 bitrate= 431.6kbits/s speed=3.91x    \n",
            "video:2927kB audio:571kB subtitle:0kB other streams:0kB global headers:0kB muxing overhead: 1.436809%\n",
            "\u001b[1;36m[libx264 @ 0x5842fa5a8e00] \u001b[0mframe I:8     Avg QP:16.25  size: 10066\n",
            "\u001b[1;36m[libx264 @ 0x5842fa5a8e00] \u001b[0mframe P:1178  Avg QP:22.14  size:  2094\n",
            "\u001b[1;36m[libx264 @ 0x5842fa5a8e00] \u001b[0mframe B:494   Avg QP:24.73  size:   909\n",
            "\u001b[1;36m[libx264 @ 0x5842fa5a8e00] \u001b[0mconsecutive B-frames: 54.6% 15.2% 10.2% 20.0%\n",
            "\u001b[1;36m[libx264 @ 0x5842fa5a8e00] \u001b[0mmb I  I16..4: 32.9% 58.6%  8.5%\n",
            "\u001b[1;36m[libx264 @ 0x5842fa5a8e00] \u001b[0mmb P  I16..4:  1.5%  5.6%  0.4%  P16..4: 26.1%  9.8%  4.7%  0.0%  0.0%    skip:51.9%\n",
            "\u001b[1;36m[libx264 @ 0x5842fa5a8e00] \u001b[0mmb B  I16..4:  0.5%  2.0%  0.2%  B16..8: 32.4%  4.4%  0.7%  direct: 1.1%  skip:58.7%  L0:52.9% L1:38.4% BI: 8.7%\n",
            "\u001b[1;36m[libx264 @ 0x5842fa5a8e00] \u001b[0m8x8 transform intra:73.5% inter:67.3%\n",
            "\u001b[1;36m[libx264 @ 0x5842fa5a8e00] \u001b[0mcoded y,uvDC,uvAC intra: 29.6% 33.1% 7.0% inter: 9.1% 8.0% 0.2%\n",
            "\u001b[1;36m[libx264 @ 0x5842fa5a8e00] \u001b[0mi16 v,h,dc,p: 48% 17% 24% 11%\n",
            "\u001b[1;36m[libx264 @ 0x5842fa5a8e00] \u001b[0mi8 v,h,dc,ddl,ddr,vr,hd,vl,hu: 28% 14% 50%  2%  1%  1%  1%  1%  1%\n",
            "\u001b[1;36m[libx264 @ 0x5842fa5a8e00] \u001b[0mi4 v,h,dc,ddl,ddr,vr,hd,vl,hu: 21% 25% 15%  4%  8%  7% 11%  5%  5%\n",
            "\u001b[1;36m[libx264 @ 0x5842fa5a8e00] \u001b[0mi8c dc,h,v,p: 60% 16% 22%  2%\n",
            "\u001b[1;36m[libx264 @ 0x5842fa5a8e00] \u001b[0mWeighted P-Frames: Y:1.6% UV:0.0%\n",
            "\u001b[1;36m[libx264 @ 0x5842fa5a8e00] \u001b[0mref P L0: 75.3% 11.1% 10.2%  3.3%  0.1%\n",
            "\u001b[1;36m[libx264 @ 0x5842fa5a8e00] \u001b[0mref B L0: 87.9% 10.2%  2.0%\n",
            "\u001b[1;36m[libx264 @ 0x5842fa5a8e00] \u001b[0mref B L1: 98.3%  1.7%\n",
            "\u001b[1;36m[libx264 @ 0x5842fa5a8e00] \u001b[0mkb/s:356.68\n",
            "\u001b[1;36m[aac @ 0x5842fa5a9f40] \u001b[0mQavg: 158.364\n"
          ]
        }
      ]
    },
    {
      "cell_type": "code",
      "source": [
        "!pip install librosa"
      ],
      "metadata": {
        "id": "U8hCoR0TuW1v",
        "outputId": "48729fb8-5cc7-4377-aa21-f1d916dd3d65",
        "colab": {
          "base_uri": "https://localhost:8080/"
        }
      },
      "execution_count": 12,
      "outputs": [
        {
          "output_type": "stream",
          "name": "stdout",
          "text": [
            "Requirement already satisfied: librosa in /usr/local/lib/python3.10/dist-packages (0.10.0.post2)\n",
            "Requirement already satisfied: audioread>=2.1.9 in /usr/local/lib/python3.10/dist-packages (from librosa) (3.0.0)\n",
            "Requirement already satisfied: numpy!=1.22.0,!=1.22.1,!=1.22.2,>=1.20.3 in /usr/local/lib/python3.10/dist-packages (from librosa) (1.22.4)\n",
            "Requirement already satisfied: scipy>=1.2.0 in /usr/local/lib/python3.10/dist-packages (from librosa) (1.10.1)\n",
            "Requirement already satisfied: scikit-learn>=0.20.0 in /usr/local/lib/python3.10/dist-packages (from librosa) (1.2.2)\n",
            "Requirement already satisfied: joblib>=0.14 in /usr/local/lib/python3.10/dist-packages (from librosa) (1.3.1)\n",
            "Requirement already satisfied: decorator>=4.3.0 in /usr/local/lib/python3.10/dist-packages (from librosa) (4.4.2)\n",
            "Requirement already satisfied: numba>=0.51.0 in /usr/local/lib/python3.10/dist-packages (from librosa) (0.56.4)\n",
            "Requirement already satisfied: soundfile>=0.12.1 in /usr/local/lib/python3.10/dist-packages (from librosa) (0.12.1)\n",
            "Requirement already satisfied: pooch<1.7,>=1.0 in /usr/local/lib/python3.10/dist-packages (from librosa) (1.6.0)\n",
            "Requirement already satisfied: soxr>=0.3.2 in /usr/local/lib/python3.10/dist-packages (from librosa) (0.3.5)\n",
            "Requirement already satisfied: typing-extensions>=4.1.1 in /usr/local/lib/python3.10/dist-packages (from librosa) (4.7.1)\n",
            "Requirement already satisfied: lazy-loader>=0.1 in /usr/local/lib/python3.10/dist-packages (from librosa) (0.3)\n",
            "Requirement already satisfied: msgpack>=1.0 in /usr/local/lib/python3.10/dist-packages (from librosa) (1.0.5)\n",
            "Requirement already satisfied: llvmlite<0.40,>=0.39.0dev0 in /usr/local/lib/python3.10/dist-packages (from numba>=0.51.0->librosa) (0.39.1)\n",
            "Requirement already satisfied: setuptools in /usr/local/lib/python3.10/dist-packages (from numba>=0.51.0->librosa) (67.7.2)\n",
            "Requirement already satisfied: appdirs>=1.3.0 in /usr/local/lib/python3.10/dist-packages (from pooch<1.7,>=1.0->librosa) (1.4.4)\n",
            "Requirement already satisfied: packaging>=20.0 in /usr/local/lib/python3.10/dist-packages (from pooch<1.7,>=1.0->librosa) (23.1)\n",
            "Requirement already satisfied: requests>=2.19.0 in /usr/local/lib/python3.10/dist-packages (from pooch<1.7,>=1.0->librosa) (2.27.1)\n",
            "Requirement already satisfied: threadpoolctl>=2.0.0 in /usr/local/lib/python3.10/dist-packages (from scikit-learn>=0.20.0->librosa) (3.1.0)\n",
            "Requirement already satisfied: cffi>=1.0 in /usr/local/lib/python3.10/dist-packages (from soundfile>=0.12.1->librosa) (1.15.1)\n",
            "Requirement already satisfied: pycparser in /usr/local/lib/python3.10/dist-packages (from cffi>=1.0->soundfile>=0.12.1->librosa) (2.21)\n",
            "Requirement already satisfied: urllib3<1.27,>=1.21.1 in /usr/local/lib/python3.10/dist-packages (from requests>=2.19.0->pooch<1.7,>=1.0->librosa) (1.26.16)\n",
            "Requirement already satisfied: certifi>=2017.4.17 in /usr/local/lib/python3.10/dist-packages (from requests>=2.19.0->pooch<1.7,>=1.0->librosa) (2023.5.7)\n",
            "Requirement already satisfied: charset-normalizer~=2.0.0 in /usr/local/lib/python3.10/dist-packages (from requests>=2.19.0->pooch<1.7,>=1.0->librosa) (2.0.12)\n",
            "Requirement already satisfied: idna<4,>=2.5 in /usr/local/lib/python3.10/dist-packages (from requests>=2.19.0->pooch<1.7,>=1.0->librosa) (3.4)\n"
          ]
        }
      ]
    },
    {
      "cell_type": "code",
      "metadata": {
        "id": "uNOAZvkszEOw"
      },
      "source": [
        "# use the \"files\" button on the left to download the result in the Wav2Lip/results/ folder."
      ],
      "execution_count": null,
      "outputs": []
    },
    {
      "cell_type": "markdown",
      "metadata": {
        "id": "d7zgfrQqbKom"
      },
      "source": [
        "## **Variations to try**\n"
      ]
    },
    {
      "cell_type": "markdown",
      "metadata": {
        "id": "0f9A9VDVbZAG"
      },
      "source": [
        "1.   Use more padding to include the chin region"
      ]
    },
    {
      "cell_type": "code",
      "metadata": {
        "id": "45XW4SZAzIz5",
        "colab": {
          "base_uri": "https://localhost:8080/"
        },
        "outputId": "1b4ad167-2df2-4a0f-8cb3-566aea774bda"
      },
      "source": [
        "!cd Wav2Lip && python inference.py --checkpoint_path checkpoints/wav2lip_gan.pth --face \"../sample_data/test.mp4\" --audio \"../sample_data/sdfnsdkgnjksdgv.wav\" --pads 0 20 0 0"
      ],
      "execution_count": null,
      "outputs": [
        {
          "output_type": "stream",
          "name": "stdout",
          "text": [
            "Using cuda for inference.\n",
            "Reading video frames...\n",
            "Number of frames available for inference: 84\n",
            "(80, 123)\n",
            "Length of mel chunks: 35\n",
            "  0% 0/1 [00:00<?, ?it/s]\n",
            "  0% 0/3 [00:00<?, ?it/s]\u001b[ATHCudaCheck FAIL file=/pytorch/aten/src/THC/THCGeneral.cpp line=383 error=11 : invalid argument\n",
            "  0% 0/3 [00:00<?, ?it/s]\n",
            "Recovering from OOM error; New batch size: 8\n",
            "\n",
            "  0% 0/5 [00:00<?, ?it/s]\u001b[A\n",
            " 20% 1/5 [00:00<00:02,  1.35it/s]\u001b[A\n",
            " 60% 3/5 [00:00<00:01,  1.83it/s]\u001b[A\n",
            "100% 5/5 [00:01<00:00,  3.17it/s]\n",
            "Load checkpoint from: checkpoints/wav2lip_gan.pth\n",
            "Model loaded\n",
            "100% 1/1 [00:06<00:00,  6.06s/it]\n",
            "ffmpeg version 3.4.11-0ubuntu0.1 Copyright (c) 2000-2022 the FFmpeg developers\n",
            "  built with gcc 7 (Ubuntu 7.5.0-3ubuntu1~18.04)\n",
            "  configuration: --prefix=/usr --extra-version=0ubuntu0.1 --toolchain=hardened --libdir=/usr/lib/x86_64-linux-gnu --incdir=/usr/include/x86_64-linux-gnu --enable-gpl --disable-stripping --enable-avresample --enable-avisynth --enable-gnutls --enable-ladspa --enable-libass --enable-libbluray --enable-libbs2b --enable-libcaca --enable-libcdio --enable-libflite --enable-libfontconfig --enable-libfreetype --enable-libfribidi --enable-libgme --enable-libgsm --enable-libmp3lame --enable-libmysofa --enable-libopenjpeg --enable-libopenmpt --enable-libopus --enable-libpulse --enable-librubberband --enable-librsvg --enable-libshine --enable-libsnappy --enable-libsoxr --enable-libspeex --enable-libssh --enable-libtheora --enable-libtwolame --enable-libvorbis --enable-libvpx --enable-libwavpack --enable-libwebp --enable-libx265 --enable-libxml2 --enable-libxvid --enable-libzmq --enable-libzvbi --enable-omx --enable-openal --enable-opengl --enable-sdl2 --enable-libdc1394 --enable-libdrm --enable-libiec61883 --enable-chromaprint --enable-frei0r --enable-libopencv --enable-libx264 --enable-shared\n",
            "  libavutil      55. 78.100 / 55. 78.100\n",
            "  libavcodec     57.107.100 / 57.107.100\n",
            "  libavformat    57. 83.100 / 57. 83.100\n",
            "  libavdevice    57. 10.100 / 57. 10.100\n",
            "  libavfilter     6.107.100 /  6.107.100\n",
            "  libavresample   3.  7.  0 /  3.  7.  0\n",
            "  libswscale      4.  8.100 /  4.  8.100\n",
            "  libswresample   2.  9.100 /  2.  9.100\n",
            "  libpostproc    54.  7.100 / 54.  7.100\n",
            "\u001b[0;33mGuessed Channel Layout for Input Stream #0.0 : mono\n",
            "\u001b[0mInput #0, wav, from '../sample_data/sdfnsdkgnjksdgv.wav':\n",
            "  Metadata:\n",
            "    encoder         : Lavf58.29.100\n",
            "  Duration: 00:00:01.54, bitrate: 256 kb/s\n",
            "    Stream #0:0: Audio: pcm_s16le ([1][0][0][0] / 0x0001), 16000 Hz, mono, s16, 256 kb/s\n",
            "Input #1, avi, from 'temp/result.avi':\n",
            "  Metadata:\n",
            "    encoder         : Lavf58.26.101\n",
            "  Duration: 00:00:01.40, start: 0.000000, bitrate: 387 kb/s\n",
            "    Stream #1:0: Video: mpeg4 (Simple Profile) (DIVX / 0x58564944), yuv420p, 160x160 [SAR 1:1 DAR 1:1], 360 kb/s, 25 fps, 25 tbr, 25 tbn, 25 tbc\n",
            "Stream mapping:\n",
            "  Stream #1:0 -> #0:0 (mpeg4 (native) -> h264 (libx264))\n",
            "  Stream #0:0 -> #0:1 (pcm_s16le (native) -> aac (native))\n",
            "Press [q] to stop, [?] for help\n",
            "\u001b[1;36m[libx264 @ 0x5609f4494d00] \u001b[0m\u001b[0;33m-qscale is ignored, -crf is recommended.\n",
            "\u001b[0m\u001b[1;36m[libx264 @ 0x5609f4494d00] \u001b[0musing SAR=1/1\n",
            "\u001b[1;36m[libx264 @ 0x5609f4494d00] \u001b[0musing cpu capabilities: MMX2 SSE2Fast SSSE3 SSE4.2 AVX FMA3 BMI2 AVX2\n",
            "\u001b[1;36m[libx264 @ 0x5609f4494d00] \u001b[0mprofile High, level 1.1\n",
            "\u001b[1;36m[libx264 @ 0x5609f4494d00] \u001b[0m264 - core 152 r2854 e9a5903 - H.264/MPEG-4 AVC codec - Copyleft 2003-2017 - http://www.videolan.org/x264.html - options: cabac=1 ref=3 deblock=1:0:0 analyse=0x3:0x113 me=hex subme=7 psy=1 psy_rd=1.00:0.00 mixed_ref=1 me_range=16 chroma_me=1 trellis=1 8x8dct=1 cqm=0 deadzone=21,11 fast_pskip=1 chroma_qp_offset=-2 threads=3 lookahead_threads=1 sliced_threads=0 nr=0 decimate=1 interlaced=0 bluray_compat=0 constrained_intra=0 bframes=3 b_pyramid=2 b_adapt=1 b_bias=0 direct=1 weightb=1 open_gop=0 weightp=2 keyint=250 keyint_min=25 scenecut=40 intra_refresh=0 rc_lookahead=40 rc=crf mbtree=1 crf=23.0 qcomp=0.60 qpmin=0 qpmax=69 qpstep=4 ip_ratio=1.40 aq=1:1.00\n",
            "Output #0, mp4, to 'results/result_voice.mp4':\n",
            "  Metadata:\n",
            "    encoder         : Lavf57.83.100\n",
            "    Stream #0:0: Video: h264 (libx264) (avc1 / 0x31637661), yuv420p(progressive), 160x160 [SAR 1:1 DAR 1:1], q=-1--1, 25 fps, 12800 tbn, 25 tbc\n",
            "    Metadata:\n",
            "      encoder         : Lavc57.107.100 libx264\n",
            "    Side data:\n",
            "      cpb: bitrate max/min/avg: 0/0/0 buffer size: 0 vbv_delay: -1\n",
            "    Stream #0:1: Audio: aac (LC) (mp4a / 0x6134706D), 16000 Hz, mono, fltp, 69 kb/s\n",
            "    Metadata:\n",
            "      encoder         : Lavc57.107.100 aac\n",
            "frame=   35 fps=0.0 q=-1.0 Lsize=      37kB time=00:00:01.53 bitrate= 197.0kbits/s speed=17.8x    \n",
            "video:22kB audio:13kB subtitle:0kB other streams:0kB global headers:0kB muxing overhead: 6.031390%\n",
            "\u001b[1;36m[libx264 @ 0x5609f4494d00] \u001b[0mframe I:1     Avg QP:24.39  size:  3148\n",
            "\u001b[1;36m[libx264 @ 0x5609f4494d00] \u001b[0mframe P:24    Avg QP:25.46  size:   710\n",
            "\u001b[1;36m[libx264 @ 0x5609f4494d00] \u001b[0mframe B:10    Avg QP:27.77  size:   177\n",
            "\u001b[1;36m[libx264 @ 0x5609f4494d00] \u001b[0mconsecutive B-frames: 57.1%  5.7% 25.7% 11.4%\n",
            "\u001b[1;36m[libx264 @ 0x5609f4494d00] \u001b[0mmb I  I16..4:  4.0% 68.0% 28.0%\n",
            "\u001b[1;36m[libx264 @ 0x5609f4494d00] \u001b[0mmb P  I16..4:  0.5%  1.5%  0.1%  P16..4: 44.1% 20.6% 12.7%  0.0%  0.0%    skip:20.6%\n",
            "\u001b[1;36m[libx264 @ 0x5609f4494d00] \u001b[0mmb B  I16..4:  0.2%  0.5%  0.0%  B16..8: 46.1%  7.5%  1.2%  direct: 1.1%  skip:43.4%  L0:36.8% L1:43.9% BI:19.2%\n",
            "\u001b[1;36m[libx264 @ 0x5609f4494d00] \u001b[0m8x8 transform intra:69.4% inter:62.5%\n",
            "\u001b[1;36m[libx264 @ 0x5609f4494d00] \u001b[0mcoded y,uvDC,uvAC intra: 74.7% 76.4% 31.8% inter: 24.3% 16.2% 0.6%\n",
            "\u001b[1;36m[libx264 @ 0x5609f4494d00] \u001b[0mi16 v,h,dc,p: 41% 24% 29%  6%\n",
            "\u001b[1;36m[libx264 @ 0x5609f4494d00] \u001b[0mi8 v,h,dc,ddl,ddr,vr,hd,vl,hu: 26% 12% 37%  2%  4%  6%  5%  4%  3%\n",
            "\u001b[1;36m[libx264 @ 0x5609f4494d00] \u001b[0mi4 v,h,dc,ddl,ddr,vr,hd,vl,hu: 36% 12% 14%  5%  6% 13%  3%  7%  2%\n",
            "\u001b[1;36m[libx264 @ 0x5609f4494d00] \u001b[0mi8c dc,h,v,p: 55% 16% 24%  6%\n",
            "\u001b[1;36m[libx264 @ 0x5609f4494d00] \u001b[0mWeighted P-Frames: Y:4.2% UV:4.2%\n",
            "\u001b[1;36m[libx264 @ 0x5609f4494d00] \u001b[0mref P L0: 64.0% 22.9%  9.5%  3.6%  0.1%\n",
            "\u001b[1;36m[libx264 @ 0x5609f4494d00] \u001b[0mref B L0: 93.0%  6.1%  1.0%\n",
            "\u001b[1;36m[libx264 @ 0x5609f4494d00] \u001b[0mref B L1: 99.4%  0.6%\n",
            "\u001b[1;36m[libx264 @ 0x5609f4494d00] \u001b[0mkb/s:125.51\n",
            "\u001b[1;36m[aac @ 0x5609f449a000] \u001b[0mQavg: 2369.354\n"
          ]
        }
      ]
    },
    {
      "cell_type": "markdown",
      "metadata": {
        "id": "uo-WnsxfbwTG"
      },
      "source": [
        "2.   Use resize_factor to reduce the video resolution, as there is a change you might get better results for lower resolution videos. Why? Because the model was trained on low resolution faces."
      ]
    },
    {
      "cell_type": "code",
      "metadata": {
        "id": "xw0xFtZ2bsx8"
      },
      "source": [
        "!cd Wav2Lip && python inference.py --checkpoint_path checkpoints/wav2lip_gan.pth --face \"../sample_data/input_vid.mp4\" --audio \"../sample_data/input_audio.wav\" --resize_factor 2"
      ],
      "execution_count": null,
      "outputs": []
    }
  ]
}